:version 1.10
:name ASF
:units
  mass 1
  length 1
  angle deg
:documentation
  ASF file generated by Kaydara
:root
  axis xyz
  order  tx ty tz rx ry rz
  position 0 0 0
  orientation 0 0 0
:bonedata
  begin
    id 1
    name RightUpLegDummy
    direction -1 2.30186e-007 8.31532e-007
    length 4.46685
    axis 0 0 0 xyz
  end
  begin
    id 2
    name RightUpLeg
    direction -2.30187e-007 -1 1.24343e-010
    length 16.4045
    axis -3.49089 -0.000906625 0.000286804 xyz
    dof rx ry rz
  end
  begin
    id 3
    name RightLeg
    direction -2.30181e-007 -1 -4.17157e-009
    length 17.5097
    axis 3.68512 0.0193738 -0.131023 xyz
    dof rx ry rz
  end
  begin
    id 4
    name RightFoot
    direction 8.31421e-007 -4.51202e-011 1
    length 6.49508
    axis 4.81691e-005 -0.120479 -0.188788 xyz
    dof rx ry rz
  end
  begin
    id 5
    name RightToes
    direction 0.00124746 -0.014064 0.9999
    length 3.85082
    axis 0.000481921 0.542163 -0.142578 xyz
    dof rx ry rz
  end
  begin
    id 6
    name SpineDummy
    direction 0.0717043 0.9409 -0.331007
    length 10.0032
    axis 0 0 0 xyz
  end
  begin
    id 7
    name Spine
    direction 2.30186e-007 1 4.58806e-011
    length 9.84055
    axis -0.001389 0.000121418 2.40972e-006 xyz
    dof rx ry rz
  end
  begin
    id 8
    name Spine1
    direction 0 0 0
    length 0
    axis -0.001389 0.000121451 1.30017e-006 xyz
    dof rx ry rz
  end
  begin
    id 9
    name HEadDummy
    direction -0.00347485 0.950688 -0.310128
    length 8.00997
    axis -0.001389 0.000121451 1.30017e-006 xyz
  end
  begin
    id 10
    name HEad
    direction -0.0222688 0.980941 0.193023
    length 5.12695
    axis -0.001389 0.000121451 1.30017e-006 xyz
    dof rx ry rz
  end
  begin
    id 11
    name LeftShoulder1Dummy
    direction 0.988871 0.146793 -0.0242004
    length 3.5792
    axis -0.001389 0.000121451 1.30017e-006 xyz
  end
  begin
    id 12
    name LeftShoulder1
    direction 0.993832 0.108932 0.020779
    length 4.16823
    axis -0.001389 0.000121451 1.30017e-006 xyz
    dof rx ry rz
  end
  begin
    id 13
    name LeftArm
    direction 1 3.44807e-006 -8.31404e-007
    length 9.91437
    axis -23.1894 0.134784 0.967509 xyz
    dof rx ry rz
  end
  begin
    id 14
    name LeftForeArm
    direction 1 3.44842e-006 -8.31581e-007
    length 9.08575
    axis -9.91835 -0.06569 -0.177793 xyz
    dof rx ry rz
  end
  begin
    id 15
    name LeftHand
    direction 0.992938 -0.0411636 0.11126
    length 5.32135
    axis -0.00960232 -0.00340091 0.185173 xyz
    dof rx ry rz
  end
  begin
    id 16
    name RightShoulderDummy
    direction -0.988871 0.146793 -0.0241962
    length 3.5792
    axis -0.001389 0.000121451 1.30017e-006 xyz
  end
  begin
    id 17
    name RightShoulder
    direction -0.993832 0.108933 0.0207785
    length 4.16823
    axis 0.215806 0.000203643 -0.0068026 xyz
    dof rx ry rz
  end
  begin
    id 18
    name RightArm
    direction -1 3.90912e-006 8.31284e-007
    length 9.91437
    axis -23.2009 -0.134239 -0.964101 xyz
    dof rx ry rz
  end
  begin
    id 19
    name RightForeArm
    direction -1 3.90882e-006 8.31502e-007
    length 9.08575
    axis -9.92322 0.0658061 0.178867 xyz
    dof rx ry rz
  end
  begin
    id 20
    name RightHand
    direction -0.992843 -0.0414603 0.112003
    length 5.28593
    axis -0.00960638 0.00330671 -0.185228 xyz
    dof rx ry rz
  end
  begin
    id 21
    name LeftUpLegDummy
    direction 1 -2.30186e-007 -8.31532e-007
    length 4.46685
    axis 0 0 0 xyz
  end
  begin
    id 22
    name LeftUpLeg
    direction -2.30187e-007 -1 6.00931e-010
    length 16.4045
    axis -3.48766 0.00143442 -0.000524262 xyz
    dof rx ry rz
  end
  begin
    id 23
    name LeftLeg
    direction -2.30187e-007 -1 1.6669e-009
    length 17.5097
    axis 3.68178 -0.00654042 -0.000285133 xyz
    dof rx ry rz
  end
  begin
    id 24
    name LeftFoot
    direction 8.31532e-007 -4.54478e-011 1
    length 6.49508
    axis 1.87233e-006 4.66016e-005 -8.6538e-006 xyz
    dof rx ry rz
  end
  begin
    id 25
    name LeftToes
    direction 0.00818058 -0.00485161 0.999955
    length 3.85048
    axis 1.06247e-005 4.65869e-005 -8.65513e-006 xyz
    dof rx ry rz
  end
:hierarchy
  begin
    root RightUpLegDummy SpineDummy LeftUpLegDummy
    RightUpLegDummy RightUpLeg
    RightUpLeg RightLeg
    RightLeg RightFoot
    RightFoot RightToes
    SpineDummy Spine
    Spine Spine1
    Spine1 HEadDummy LeftShoulder1Dummy RightShoulderDummy
    HEadDummy HEad
    LeftShoulder1Dummy LeftShoulder1
    LeftShoulder1 LeftArm
    LeftArm LeftForeArm
    LeftForeArm LeftHand
    RightShoulderDummy RightShoulder
    RightShoulder RightArm
    RightArm RightForeArm
    RightForeArm RightHand
    LeftUpLegDummy LeftUpLeg
    LeftUpLeg LeftLeg
    LeftLeg LeftFoot
    LeftFoot LeftToes
  end

:SAMPLES-PER-SECOND 30
:FULLY-SPECIFIED
:DEGREES
1
root  -73.2226 33.2717 33.2635 -24.1383 82.7647 -31.2493
RightUpLeg  -14.9264 -19.6514 -5.03123
RightLeg  18.2906 -0.965372 -0.252095
RightFoot  6.3129 0.0248871 -0.0737326
RightToes  -40.6067 -0.223348 -0.319782
Spine  7.44792 -2.77879 0.34276
Spine1  13.926 -5.7968 0.743637
HEad  36.8431 -4.95086 12.0007
LeftShoulder1  0 -2.42657e-020 -4.95415e-022
LeftArm  -11.9411 0.286949 -79.2787
LeftForeArm  41.9594 -77.1804 -51.3207
LeftHand  0.285445 -1.06829 -30.4785
RightShoulder  0 2.42657e-020 1.07489e-018
RightArm  -9.53005 -15.8332 78.6283
RightForeArm  -5.54998 72.1341 33.1698
RightHand  3.63133 17.5902 23.5359
LeftUpLeg  -16.7142 31.4343 14.8714
LeftLeg  13.1943 -7.20019 -1.20468
LeftFoot  14.8107 0.277424 -2.13425
LeftToes  -29.199 2.34596e-006 -6.06653e-008
2
root  -73.1495 33.2849 34.2182 -32.7083 82.5335 -39.5936
RightUpLeg  -14.2666 -20.0032 -2.81828
RightLeg  18.4622 -0.64002 -0.169456
RightFoot  5.04512 0.0179893 -0.0307788
RightToes  -40.8336 -0.225176 -0.319783
Spine  7.00101 -3.03366 1.28072
Spine1  13.0102 -6.37086 2.43611
HEad  38.2247 -1.90621 11.2702
LeftShoulder1  0 -2.42657e-020 -4.95415e-022
LeftArm  -11.5927 1.82546 -81.0231
LeftForeArm  49.1343 -78.1187 -57.6525
LeftHand  0.249907 -0.93077 -30.6463
RightShoulder  0 2.42657e-020 1.07489e-018
RightArm  -9.3237 -16.8844 75.5021
RightForeArm  -9.27377 73.0562 35.3179
RightHand  3.18941 16.4409 22.1939
LeftUpLeg  -14.0395 29.5855 17.8558
LeftLeg  9.40207 -6.55567 -0.656307
LeftFoot  14.818 0.252821 -1.94405
LeftToes  -29.7331 2.34596e-006 -6.06653e-008
3
root  -73.0529 33.3506 35.0618 -34.824 82.5223 -41.5952
RightUpLeg  -13.765 -19.1057 -1.36377
RightLeg  18.5549 -1.73357 -0.460819
RightFoot  3.79233 0.0157965 -0.0995725
RightToes  -39.0455 -0.210903 -0.309667
Spine  6.41802 -3.28775 1.82096
Spine1  11.8917 -6.87887 3.35939
HEad  39.7264 1.38739 10.9549
LeftShoulder1  0 -2.42657e-020 -4.95415e-022
LeftArm  -11.1679 3.7333 -81.9686
LeftForeArm  56.6219 -78.662 -62.4983
LeftHand  0.382043 -1.44621 -30.1024
RightShoulder  0 2.42657e-020 1.07489e-018
RightArm  -10.0005 -18.2024 73.4855
RightForeArm  -10.0242 73.3776 36.1404
RightHand  3.39079 16.8543 22.975
LeftUpLeg  -11.3907 23.995 19.8591
LeftLeg  6.23529 -1.85778 -0.0835543
LeftFoot  10.4112 0.0505753 -0.555131
LeftToes  -26.755 2.34596e-006 -6.06653e-008
4
root  -72.8966 33.4975 35.7493 -33.5769 83.2305 -39.8189
RightUpLeg  -12.4775 -18.8489 -1.14797
RightLeg  18.0738 -2.46225 -0.6318
RightFoot  3.06769 0.01335 -0.120981
RightToes  -37.3998 -0.198052 -0.299967
Spine  6.02028 -3.64178 2.07717
Spine1  11.1523 -7.56632 3.76112
HEad  40.597 4.26638 10.6832
LeftShoulder1  0 -2.42657e-020 -4.95415e-022
LeftArm  -10.5566 5.46086 -82.3972
LeftForeArm  59.3128 -78.4912 -60.8921
LeftHand  0.504678 -1.98116 -29.0482
RightShoulder  0 2.42657e-020 1.07489e-018
RightArm  -10.8264 -19.3626 71.9063
RightForeArm  -10.837 73.7214 37.0642
RightHand  3.44676 16.7878 23.4284
LeftUpLeg  -9.76952 16.9648 20.3222
LeftLeg  5.27128 4.65394 0.128395
LeftFoot  5.44138 -0.0121369 0.255393
LeftToes  -18.4442 2.34596e-006 -6.06653e-008
5
root  -72.7793 33.6445 36.2858 -28.2989 83.8954 -33.8986
RightUpLeg  -11.216 -19.1905 -1.45877
RightLeg  17.4964 -2.46763 -0.60653
RightFoot  2.60936 0.0104981 -0.104397
RightToes  -36.4308 -0.190617 -0.294086
Spine  5.77722 -3.69136 2.10992
Spine1  10.7444 -7.63894 3.79184
HEad  40.5037 6.60975 10.5133
LeftShoulder1  0 -2.42657e-020 -4.95415e-022
LeftArm  -9.02933 5.95175 -82.2712
LeftForeArm  54.7098 -77.1948 -51.4798
LeftHand  0.61173 -2.47041 -28.2585
RightShoulder  0 2.42657e-020 1.07489e-018
RightArm  -12.3481 -20.9627 70.8588
RightForeArm  -8.80106 74.6665 39.9385
RightHand  3.36336 16.6707 23.0409
LeftUpLeg  -9.91599 15.4724 19.237
LeftLeg  7.91121 5.60213 0.412713
LeftFoot  4.84789 -0.0129906 0.306871
LeftToes  -20.9996 2.34596e-006 -6.06653e-008
6
root  -72.7013 33.7901 36.6433 -21.8457 84.9266 -26.9131
RightUpLeg  -10.0012 -19.8887 -2.28437
RightLeg  16.6465 -2.12785 -0.489466
RightFoot  2.64652 0.00843207 -0.0937811
RightToes  -36.7668 -0.193184 -0.296139
Spine  5.57 -3.70732 2.09117
Spine1  10.3897 -7.65564 3.75567
HEad  39.2455 8.67743 9.59114
LeftShoulder1  0 -2.42657e-020 -4.95415e-022
LeftArm  -6.76814 5.75483 -81.9434
LeftForeArm  48.3915 -74.3777 -39.4483
LeftHand  0.810485 -3.42383 -27.0514
RightShoulder  0 2.42657e-020 1.07489e-018
RightArm  -15.493 -23.2036 70.9357
RightForeArm  -5.54245 75.6734 43.5879
RightHand  3.33534 16.4873 23.1039
LeftUpLeg  -11.4349 13.601 17.283
LeftLeg  12.7772 1.16029 0.184258
LeftFoot  4.69539 0.0115416 -0.0590455
LeftToes  -19.2607 2.34596e-006 -6.06653e-008
7
root  -72.6044 33.9214 36.8212 -3.55681 84.9969 -8.48
RightUpLeg  -9.72835 -19.9564 -3.5884
RightLeg  16.5136 -1.88307 -0.428549
RightFoot  2.26226 0.00592894 -0.0707384
RightToes  -35.6806 -0.18744 -0.291433
Spine  5.36887 -3.25112 1.88212
Spine1  10.0792 -6.70518 3.37293
HEad  37.1514 10.2861 8.33447
LeftShoulder1  0 -2.42657e-020 -4.95415e-022
LeftArm  -4.26121 5.0922 -81.7539
LeftForeArm  44.9335 -70.4138 -29.9157
LeftHand  0.941791 -4.17459 -25.8275
RightShoulder  0 2.42657e-020 1.07489e-018
RightArm  -18.1755 -25.5621 70.4987
RightForeArm  -2.58246 76.6204 47.7613
RightHand  3.38698 16.5937 23.3006
LeftUpLeg  -12.6602 9.849 14.4519
LeftLeg  16.5435 -2.22372 -0.509531
LeftFoot  5.07478 0.0300381 -0.337105
LeftToes  -19.8793 2.34596e-006 -6.06653e-008
8
root  -72.3778 34.0624 36.7789 13.1629 82.4144 7.35951
RightUpLeg  -11.0692 -18.5653 -5.09461
RightLeg  16.8759 -1.04768 -0.245544
RightFoot  2.22792 0.00320934 -0.0392893
RightToes  -35.1076 -0.180627 -0.285851
Spine  4.85411 -2.01552 1.62038
Spine1  9.17416 -4.18347 2.94647
HEad  34.911 11.3816 6.58628
LeftShoulder1  0 -2.42657e-020 -4.95415e-022
LeftArm  -2.22632 5.47573 -82.5361
LeftForeArm  45.1253 -66.0575 -23.5216
LeftHand  1.11538 -5.20351 -24.5831
RightShoulder  0 2.42657e-020 1.07489e-018
RightArm  -22.2579 -28.9513 70.4192
RightForeArm  2.29814 77.569 53.0518
RightHand  3.44991 16.5109 23.8308
LeftUpLeg  -12.9959 8.64164 10.9298
LeftLeg  17.098 -3.43132 -0.819939
LeftFoot  5.89577 0.0391299 -0.474395
LeftToes  -19.6534 2.34596e-006 -6.06653e-008
9
root  -72.3149 34.1285 36.9046 18.9687 82.5268 13.1563
RightUpLeg  -10.7608 -18.6385 -5.64981
RightLeg  16.5092 -1.29892 -0.295519
RightFoot  2.0826 0.00325582 -0.0463392
RightToes  -34.8782 -0.178915 -0.284401
Spine  4.74548 -1.76913 1.74403
Spine1  8.99455 -3.68026 3.19636
HEad  33.0784 12.492 4.85656
LeftShoulder1  0 -2.42657e-020 -4.95415e-022
LeftArm  -1.93599 5.27717 -83.4069
LeftForeArm  46.1254 -60.8337 -18.4811
LeftHand  1.24624 -6.0433 -23.6804
RightShoulder  0 2.42657e-020 1.07489e-018
RightArm  -26.3178 -30.61 70.8326
RightForeArm  4.5077 77.8996 55.271
RightHand  3.38331 16.0189 24.0869
LeftUpLeg  -13.8708 8.26434 8.62378
LeftLeg  16.0969 -2.80161 -0.61836
LeftFoot  7.39005 0.0388297 -0.470549
LeftToes  -21.6501 2.34596e-006 -6.06653e-008
10
root  -72.8682 34.1573 37.2222 38.051 86.6419 31.0361
RightUpLeg  -12.0232 -19.8717 -4.30682
RightLeg  16.6646 -4.68187 -1.07726
RightFoot  1.85451 0.00994867 -0.152736
RightToes  -33.2312 -0.166793 -0.273785
Spine  4.24036 -3.05223 2.32152
Spine1  7.93739 -6.25266 4.24977
HEad  31.4518 13.8416 3.69806
LeftShoulder1  0 -2.42657e-020 -4.95415e-022
LeftArm  -3.8571 5.31677 -83.9207
LeftForeArm  47.3596 -55.6101 -14.9548
LeftHand  1.39423 -6.89891 -23.2173
RightShoulder  0 2.42657e-020 1.07489e-018
RightArm  -29.5402 -30.875 71.7227
RightForeArm  4.6496 77.9268 55.4633
RightHand  3.3535 15.6904 24.3683
LeftUpLeg  -19.2902 5.19437 7.33731
LeftLeg  16.0491 -1.87434 -0.412774
LeftFoot  8.68773 0.0329862 -0.384819
LeftToes  -20.0248 2.34596e-006 -6.06653e-008
11
root  -72.8001 34.1217 37.4005 52.995 88.0737 47.5133
RightUpLeg  -9.72511 -21.3082 -4.35991
RightLeg  16.3079 -4.72001 -1.05504
RightFoot  1.43389 0.0073899 -0.112213
RightToes  -32.9321 -0.164624 -0.271819
Spine  4.70344 -3.54074 2.79193
Spine1  8.82132 -7.25077 5.10859
HEad  30.2137 15.0111 2.67405
LeftShoulder1  0 -2.42657e-020 -4.95415e-022
LeftArm  -5.63669 5.26061 -84.7954
LeftForeArm  48.3061 -50.3919 -12.3051
LeftHand  1.24347 -6.65756 -21.5284
RightShoulder  0 2.42657e-020 1.07489e-018
RightArm  -32.1809 -30.2989 71.7523
RightForeArm  3.33138 77.7838 54.4577
RightHand  3.35986 15.5312 24.6548
LeftUpLeg  -18.6325 6.12053 6.11978
LeftLeg  12.6136 -1.95987 -0.309421
LeftFoot  8.36965 0.0319382 -0.377317
LeftToes  -20.9157 2.34596e-006 -6.06653e-008
